<svg width="32" height="32" viewBox="0 0 32 32" fill="none" xmlns="http://www.w3.org/2000/svg">
<rect x="1" y="3" width="30" height="28" rx="1" stroke="#666666" stroke-width="2"/>
<line x1="1" y1="10.5" x2="31" y2="10.5" stroke="#666666"/>
<rect x="5" y="13" width="2" height="2" fill="#666666"/>
<rect x="5" y="17" width="2" height="2" fill="#666666"/>
<rect x="5" y="21" width="2" height="2" fill="#666666"/>
<rect x="5" y="25" width="2" height="2" fill="#666666"/>
<rect x="9" y="13" width="2" height="2" fill="#666666"/>
<rect x="9" y="17" width="2" height="2" fill="#666666"/>
<rect x="9" y="21" width="2" height="2" fill="#666666"/>
<rect x="9" y="25" width="2" height="2" fill="#666666"/>
<rect x="13" y="13" width="2" height="2" fill="#666666"/>
<rect x="13" y="17" width="2" height="2" fill="#666666"/>
<rect x="13" y="21" width="2" height="2" fill="#666666"/>
<rect x="13" y="25" width="2" height="2" fill="#666666"/>
<rect x="17" y="13" width="2" height="2" fill="#666666"/>
<rect x="17" y="17" width="2" height="2" fill="#666666"/>
<rect x="17" y="21" width="2" height="2" fill="#666666"/>
<rect x="17" y="25" width="2" height="2" fill="#666666"/>
<rect x="21" y="13" width="2" height="2" fill="#666666"/>
<rect x="21" y="17" width="2" height="2" fill="#666666"/>
<rect x="21" y="21" width="2" height="2" fill="#666666"/>
<rect x="21" y="25" width="2" height="2" fill="#666666"/>
<rect x="25" y="13" width="2" height="2" fill="#666666"/>
<rect x="25" y="17" width="2" height="2" fill="#666666"/>
<rect x="25" y="21" width="2" height="2" fill="#666666"/>
<rect x="25" y="25" width="2" height="2" fill="#666666"/>
<line x1="6" x2="6" y2="6" stroke="#666666" stroke-width="2"/>
<line x1="10" x2="10" y2="6" stroke="#666666" stroke-width="2"/>
<line x1="14" x2="14" y2="6" stroke="#666666" stroke-width="2"/>
<line x1="18" x2="18" y2="6" stroke="#666666" stroke-width="2"/>
<line x1="22" x2="22" y2="6" stroke="#666666" stroke-width="2"/>
<line x1="26" x2="26" y2="6" stroke="#666666" stroke-width="2"/>
</svg>
